<svg width="510" height="95" viewBox="0 0 510 95" fill="none" xmlns="http://www.w3.org/2000/svg">
<path d="M23.3059 30.5156V36H5.14188V30.5156H23.3059ZM7.43875 1.875V36H0.407501V1.875H7.43875ZM20.9388 15.7734V21.1172H5.14188V15.7734H20.9388ZM23.2825 1.875V7.38281H5.14188V1.875H23.2825ZM37.8981 18.7031V24H24.6559V18.7031H37.8981ZM61.3263 24.6797H68.3341C68.1934 26.9766 67.5606 29.0156 66.4356 30.7969C65.3263 32.5781 63.7716 33.9688 61.7716 34.9688C59.7872 35.9688 57.3966 36.4688 54.5997 36.4688C52.4122 36.4688 50.4513 36.0938 48.7169 35.3438C46.9825 34.5781 45.4981 33.4844 44.2638 32.0625C43.045 30.6406 42.1153 28.9219 41.4747 26.9062C40.8341 24.8906 40.5138 22.6328 40.5138 20.1328V17.7656C40.5138 15.2656 40.8419 13.0078 41.4981 10.9922C42.17 8.96094 43.1231 7.23438 44.3575 5.8125C45.6075 4.39062 47.0997 3.29688 48.8341 2.53125C50.5684 1.76562 52.5059 1.38281 54.6466 1.38281C57.4903 1.38281 59.8888 1.89844 61.8419 2.92969C63.8106 3.96094 65.3341 5.38281 66.4122 7.19531C67.5059 9.00781 68.1622 11.0703 68.3809 13.3828H61.3497C61.2716 12.0078 60.9981 10.8438 60.5294 9.89062C60.0606 8.92188 59.3497 8.19531 58.3966 7.71094C57.4591 7.21094 56.2091 6.96094 54.6466 6.96094C53.4747 6.96094 52.4513 7.17969 51.5763 7.61719C50.7013 8.05469 49.9669 8.71875 49.3731 9.60938C48.7794 10.5 48.3341 11.625 48.0372 12.9844C47.7559 14.3281 47.6153 15.9062 47.6153 17.7188V20.1328C47.6153 21.8984 47.7481 23.4531 48.0138 24.7969C48.2794 26.125 48.6856 27.25 49.2325 28.1719C49.795 29.0781 50.5138 29.7656 51.3888 30.2344C52.2794 30.6875 53.3497 30.9141 54.5997 30.9141C56.0684 30.9141 57.2794 30.6797 58.2325 30.2109C59.1856 29.7422 59.9122 29.0469 60.4122 28.125C60.9278 27.2031 61.2325 26.0547 61.3263 24.6797ZM69.0513 23.5781V23.0859C69.0513 21.2266 69.3169 19.5156 69.8481 17.9531C70.3794 16.375 71.1528 15.0078 72.1684 13.8516C73.1841 12.6953 74.4341 11.7969 75.9184 11.1562C77.4028 10.5 79.1059 10.1719 81.0278 10.1719C82.9497 10.1719 84.6606 10.5 86.1606 11.1562C87.6606 11.7969 88.9184 12.6953 89.9341 13.8516C90.9653 15.0078 91.7466 16.375 92.2778 17.9531C92.8091 19.5156 93.0747 21.2266 93.0747 23.0859V23.5781C93.0747 25.4219 92.8091 27.1328 92.2778 28.7109C91.7466 30.2734 90.9653 31.6406 89.9341 32.8125C88.9184 33.9688 87.6684 34.8672 86.1841 35.5078C84.6997 36.1484 82.9966 36.4688 81.0747 36.4688C79.1528 36.4688 77.4419 36.1484 75.9419 35.5078C74.4575 34.8672 73.1997 33.9688 72.1684 32.8125C71.1528 31.6406 70.3794 30.2734 69.8481 28.7109C69.3169 27.1328 69.0513 25.4219 69.0513 23.5781ZM75.8013 23.0859V23.5781C75.8013 24.6406 75.895 25.6328 76.0825 26.5547C76.27 27.4766 76.5669 28.2891 76.9731 28.9922C77.395 29.6797 77.9419 30.2188 78.6138 30.6094C79.2856 31 80.1059 31.1953 81.0747 31.1953C82.0122 31.1953 82.8169 31 83.4888 30.6094C84.1606 30.2188 84.6997 29.6797 85.1059 28.9922C85.5122 28.2891 85.8091 27.4766 85.9966 26.5547C86.1997 25.6328 86.3013 24.6406 86.3013 23.5781V23.0859C86.3013 22.0547 86.1997 21.0859 85.9966 20.1797C85.8091 19.2578 85.5044 18.4453 85.0825 17.7422C84.6763 17.0234 84.1372 16.4609 83.4653 16.0547C82.7934 15.6484 81.9809 15.4453 81.0278 15.4453C80.0747 15.4453 79.2622 15.6484 78.5903 16.0547C77.9341 16.4609 77.395 17.0234 76.9731 17.7422C76.5669 18.4453 76.27 19.2578 76.0825 20.1797C75.895 21.0859 75.8013 22.0547 75.8013 23.0859ZM101.573 15.8906V36H94.7997V10.6406H101.151L101.573 15.8906ZM100.636 22.4297H98.7606C98.7606 20.6641 98.9716 19.0391 99.3934 17.5547C99.8309 16.0547 100.464 14.7578 101.292 13.6641C102.136 12.5547 103.175 11.6953 104.409 11.0859C105.643 10.4766 107.073 10.1719 108.698 10.1719C109.823 10.1719 110.854 10.3437 111.792 10.6875C112.729 11.0156 113.534 11.5391 114.206 12.2578C114.893 12.9609 115.425 13.8828 115.8 15.0234C116.175 16.1484 116.362 17.5 116.362 19.0781V36H109.612V19.8281C109.612 18.6719 109.456 17.7812 109.143 17.1562C108.831 16.5312 108.386 16.0938 107.808 15.8438C107.245 15.5938 106.565 15.4688 105.768 15.4688C104.893 15.4688 104.128 15.6484 103.472 16.0078C102.831 16.3672 102.3 16.8672 101.878 17.5078C101.456 18.1328 101.143 18.8672 100.94 19.7109C100.737 20.5547 100.636 21.4609 100.636 22.4297ZM115.729 21.6562L113.315 21.9609C113.315 20.3047 113.518 18.7656 113.925 17.3438C114.347 15.9219 114.964 14.6719 115.776 13.5938C116.604 12.5156 117.628 11.6797 118.847 11.0859C120.065 10.4766 121.472 10.1719 123.065 10.1719C124.284 10.1719 125.393 10.3516 126.393 10.7109C127.393 11.0547 128.245 11.6094 128.948 12.375C129.667 13.125 130.214 14.1094 130.589 15.3281C130.979 16.5469 131.175 18.0391 131.175 19.8047V36H124.401V19.8047C124.401 18.6328 124.245 17.7422 123.933 17.1328C123.636 16.5078 123.198 16.0781 122.62 15.8438C122.058 15.5938 121.386 15.4688 120.604 15.4688C119.792 15.4688 119.081 15.6328 118.472 15.9609C117.862 16.2734 117.354 16.7109 116.948 17.2734C116.542 17.8359 116.237 18.4922 116.034 19.2422C115.831 19.9766 115.729 20.7812 115.729 21.6562ZM140.751 15.8906V36H133.978V10.6406H140.329L140.751 15.8906ZM139.814 22.4297H137.939C137.939 20.6641 138.15 19.0391 138.572 17.5547C139.009 16.0547 139.642 14.7578 140.47 13.6641C141.314 12.5547 142.353 11.6953 143.587 11.0859C144.822 10.4766 146.251 10.1719 147.876 10.1719C149.001 10.1719 150.033 10.3437 150.97 10.6875C151.908 11.0156 152.712 11.5391 153.384 12.2578C154.072 12.9609 154.603 13.8828 154.978 15.0234C155.353 16.1484 155.54 17.5 155.54 19.0781V36H148.79V19.8281C148.79 18.6719 148.634 17.7812 148.322 17.1562C148.009 16.5312 147.564 16.0938 146.986 15.8438C146.423 15.5938 145.743 15.4688 144.947 15.4688C144.072 15.4688 143.306 15.6484 142.65 16.0078C142.009 16.3672 141.478 16.8672 141.056 17.5078C140.634 18.1328 140.322 18.8672 140.118 19.7109C139.915 20.5547 139.814 21.4609 139.814 22.4297ZM154.908 21.6562L152.493 21.9609C152.493 20.3047 152.697 18.7656 153.103 17.3438C153.525 15.9219 154.142 14.6719 154.954 13.5938C155.783 12.5156 156.806 11.6797 158.025 11.0859C159.243 10.4766 160.65 10.1719 162.243 10.1719C163.462 10.1719 164.572 10.3516 165.572 10.7109C166.572 11.0547 167.423 11.6094 168.126 12.375C168.845 13.125 169.392 14.1094 169.767 15.3281C170.158 16.5469 170.353 18.0391 170.353 19.8047V36H163.579V19.8047C163.579 18.6328 163.423 17.7422 163.111 17.1328C162.814 16.5078 162.376 16.0781 161.798 15.8438C161.236 15.5938 160.564 15.4688 159.783 15.4688C158.97 15.4688 158.259 15.6328 157.65 15.9609C157.04 16.2734 156.533 16.7109 156.126 17.2734C155.72 17.8359 155.415 18.4922 155.212 19.2422C155.009 19.9766 154.908 20.7812 154.908 21.6562ZM184.851 36.4688C182.883 36.4688 181.117 36.1562 179.554 35.5312C177.992 34.8906 176.664 34.0078 175.57 32.8828C174.492 31.7578 173.664 30.4531 173.086 28.9688C172.508 27.4688 172.218 25.875 172.218 24.1875V23.25C172.218 21.3281 172.492 19.5703 173.039 17.9766C173.586 16.3828 174.367 15 175.383 13.8281C176.414 12.6562 177.664 11.7578 179.133 11.1328C180.601 10.4922 182.258 10.1719 184.101 10.1719C185.898 10.1719 187.492 10.4688 188.883 11.0625C190.273 11.6562 191.437 12.5 192.375 13.5938C193.328 14.6875 194.047 16 194.531 17.5312C195.015 19.0469 195.258 20.7344 195.258 22.5938V25.4062H175.101V20.9062H188.625V20.3906C188.625 19.4531 188.453 18.6172 188.109 17.8828C187.781 17.1328 187.281 16.5391 186.609 16.1016C185.937 15.6641 185.078 15.4453 184.031 15.4453C183.14 15.4453 182.375 15.6406 181.734 16.0312C181.093 16.4219 180.57 16.9688 180.164 17.6719C179.773 18.375 179.476 19.2031 179.273 20.1562C179.086 21.0938 178.992 22.125 178.992 23.25V24.1875C178.992 25.2031 179.133 26.1406 179.414 27C179.711 27.8594 180.125 28.6016 180.656 29.2266C181.203 29.8516 181.859 30.3359 182.625 30.6797C183.406 31.0234 184.289 31.1953 185.273 31.1953C186.492 31.1953 187.625 30.9609 188.672 30.4922C189.734 30.0078 190.648 29.2812 191.414 28.3125L194.695 31.875C194.164 32.6406 193.437 33.375 192.515 34.0781C191.609 34.7812 190.515 35.3594 189.234 35.8125C187.953 36.25 186.492 36.4688 184.851 36.4688ZM203.451 16.1719V36H196.701V10.6406H203.053L203.451 16.1719ZM211.092 10.4766L210.975 16.7344C210.647 16.6875 210.248 16.6484 209.779 16.6172C209.326 16.5703 208.912 16.5469 208.537 16.5469C207.584 16.5469 206.756 16.6719 206.053 16.9219C205.365 17.1562 204.787 17.5078 204.318 17.9766C203.865 18.4453 203.522 19.0156 203.287 19.6875C203.068 20.3594 202.943 21.125 202.912 21.9844L201.553 21.5625C201.553 19.9219 201.717 18.4141 202.045 17.0391C202.373 15.6484 202.85 14.4375 203.475 13.4062C204.115 12.375 204.897 11.5781 205.818 11.0156C206.74 10.4531 207.795 10.1719 208.982 10.1719C209.357 10.1719 209.74 10.2031 210.131 10.2656C210.522 10.3125 210.842 10.3828 211.092 10.4766ZM221.887 31.1953C222.715 31.1953 223.45 31.0391 224.09 30.7266C224.731 30.3984 225.231 29.9453 225.59 29.3672C225.965 28.7734 226.161 28.0781 226.176 27.2812H232.528C232.512 29.0625 232.036 30.6484 231.098 32.0391C230.161 33.4141 228.903 34.5 227.325 35.2969C225.747 36.0781 223.981 36.4688 222.028 36.4688C220.059 36.4688 218.34 36.1406 216.872 35.4844C215.418 34.8281 214.208 33.9219 213.239 32.7656C212.27 31.5938 211.543 30.2344 211.059 28.6875C210.575 27.125 210.333 25.4531 210.333 23.6719V22.9922C210.333 21.1953 210.575 19.5234 211.059 17.9766C211.543 16.4141 212.27 15.0547 213.239 13.8984C214.208 12.7266 215.418 11.8125 216.872 11.1562C218.325 10.5 220.028 10.1719 221.981 10.1719C224.059 10.1719 225.879 10.5703 227.442 11.3672C229.02 12.1641 230.254 13.3047 231.145 14.7891C232.051 16.2578 232.512 18 232.528 20.0156H226.176C226.161 19.1719 225.981 18.4062 225.637 17.7188C225.309 17.0312 224.825 16.4844 224.184 16.0781C223.559 15.6562 222.786 15.4453 221.864 15.4453C220.879 15.4453 220.075 15.6562 219.45 16.0781C218.825 16.4844 218.34 17.0469 217.997 17.7656C217.653 18.4688 217.411 19.2734 217.27 20.1797C217.145 21.0703 217.083 22.0078 217.083 22.9922V23.6719C217.083 24.6562 217.145 25.6016 217.27 26.5078C217.395 27.4141 217.629 28.2188 217.973 28.9219C218.333 29.625 218.825 30.1797 219.45 30.5859C220.075 30.9922 220.887 31.1953 221.887 31.1953ZM245.714 36.4688C243.745 36.4688 241.979 36.1562 240.417 35.5312C238.854 34.8906 237.526 34.0078 236.432 32.8828C235.354 31.7578 234.526 30.4531 233.948 28.9688C233.37 27.4688 233.081 25.875 233.081 24.1875V23.25C233.081 21.3281 233.354 19.5703 233.901 17.9766C234.448 16.3828 235.229 15 236.245 13.8281C237.276 12.6562 238.526 11.7578 239.995 11.1328C241.464 10.4922 243.12 10.1719 244.964 10.1719C246.761 10.1719 248.354 10.4688 249.745 11.0625C251.136 11.6562 252.3 12.5 253.237 13.5938C254.19 14.6875 254.909 16 255.393 17.5312C255.878 19.0469 256.12 20.7344 256.12 22.5938V25.4062H235.964V20.9062H249.487V20.3906C249.487 19.4531 249.315 18.6172 248.972 17.8828C248.643 17.1328 248.143 16.5391 247.472 16.1016C246.8 15.6641 245.94 15.4453 244.893 15.4453C244.003 15.4453 243.237 15.6406 242.597 16.0312C241.956 16.4219 241.432 16.9688 241.026 17.6719C240.636 18.375 240.339 19.2031 240.136 20.1562C239.948 21.0938 239.854 22.125 239.854 23.25V24.1875C239.854 25.2031 239.995 26.1406 240.276 27C240.573 27.8594 240.987 28.6016 241.518 29.2266C242.065 29.8516 242.722 30.3359 243.487 30.6797C244.268 31.0234 245.151 31.1953 246.136 31.1953C247.354 31.1953 248.487 30.9609 249.534 30.4922C250.597 30.0078 251.511 29.2812 252.276 28.3125L255.557 31.875C255.026 32.6406 254.3 33.375 253.378 34.0781C252.472 34.7812 251.378 35.3594 250.097 35.8125C248.815 36.25 247.354 36.4688 245.714 36.4688ZM280.828 23.8359H272.133V18.3516H280.828C282.172 18.3516 283.265 18.1328 284.109 17.6953C284.953 17.2422 285.57 16.6172 285.961 15.8203C286.351 15.0234 286.547 14.125 286.547 13.125C286.547 12.1094 286.351 11.1641 285.961 10.2891C285.57 9.41406 284.953 8.71094 284.109 8.17969C283.265 7.64844 282.172 7.38281 280.828 7.38281H274.57V36H267.539V1.875H280.828C283.5 1.875 285.789 2.35938 287.695 3.32812C289.617 4.28125 291.086 5.60156 292.101 7.28906C293.117 8.97656 293.625 10.9062 293.625 13.0781C293.625 15.2812 293.117 17.1875 292.101 18.7969C291.086 20.4062 289.617 21.6484 287.695 22.5234C285.789 23.3984 283.5 23.8359 280.828 23.8359ZM294.248 23.5781V23.0859C294.248 21.2266 294.514 19.5156 295.045 17.9531C295.576 16.375 296.35 15.0078 297.365 13.8516C298.381 12.6953 299.631 11.7969 301.115 11.1562C302.6 10.5 304.303 10.1719 306.225 10.1719C308.147 10.1719 309.858 10.5 311.358 11.1562C312.858 11.7969 314.115 12.6953 315.131 13.8516C316.162 15.0078 316.943 16.375 317.475 17.9531C318.006 19.5156 318.272 21.2266 318.272 23.0859V23.5781C318.272 25.4219 318.006 27.1328 317.475 28.7109C316.943 30.2734 316.162 31.6406 315.131 32.8125C314.115 33.9688 312.865 34.8672 311.381 35.5078C309.897 36.1484 308.193 36.4688 306.272 36.4688C304.35 36.4688 302.639 36.1484 301.139 35.5078C299.654 34.8672 298.397 33.9688 297.365 32.8125C296.35 31.6406 295.576 30.2734 295.045 28.7109C294.514 27.1328 294.248 25.4219 294.248 23.5781ZM300.998 23.0859V23.5781C300.998 24.6406 301.092 25.6328 301.279 26.5547C301.467 27.4766 301.764 28.2891 302.17 28.9922C302.592 29.6797 303.139 30.2188 303.811 30.6094C304.483 31 305.303 31.1953 306.272 31.1953C307.209 31.1953 308.014 31 308.686 30.6094C309.358 30.2188 309.897 29.6797 310.303 28.9922C310.709 28.2891 311.006 27.4766 311.193 26.5547C311.397 25.6328 311.498 24.6406 311.498 23.5781V23.0859C311.498 22.0547 311.397 21.0859 311.193 20.1797C311.006 19.2578 310.701 18.4453 310.279 17.7422C309.873 17.0234 309.334 16.4609 308.662 16.0547C307.99 15.6484 307.178 15.4453 306.225 15.4453C305.272 15.4453 304.459 15.6484 303.787 16.0547C303.131 16.4609 302.592 17.0234 302.17 17.7422C301.764 18.4453 301.467 19.2578 301.279 20.1797C301.092 21.0859 300.998 22.0547 300.998 23.0859ZM327.262 29.4375L332.536 10.6406H336.825L335.442 18.0234L330.168 36H326.582L327.262 29.4375ZM324.59 10.6406L328.364 29.4141L328.715 36H324.497L318.075 10.6406H324.59ZM341.653 29.1094L345.332 10.6406H351.872L345.45 36H341.254L341.653 29.1094ZM337.411 10.6406L342.661 29.2969L343.387 36H339.778L334.504 18.0469L333.168 10.6406H337.411ZM364.542 36.4688C362.573 36.4688 360.807 36.1562 359.245 35.5312C357.682 34.8906 356.354 34.0078 355.261 32.8828C354.182 31.7578 353.354 30.4531 352.776 28.9688C352.198 27.4688 351.909 25.875 351.909 24.1875V23.25C351.909 21.3281 352.182 19.5703 352.729 17.9766C353.276 16.3828 354.057 15 355.073 13.8281C356.104 12.6562 357.354 11.7578 358.823 11.1328C360.292 10.4922 361.948 10.1719 363.792 10.1719C365.589 10.1719 367.182 10.4688 368.573 11.0625C369.964 11.6562 371.128 12.5 372.065 13.5938C373.018 14.6875 373.737 16 374.222 17.5312C374.706 19.0469 374.948 20.7344 374.948 22.5938V25.4062H354.792V20.9062H368.315V20.3906C368.315 19.4531 368.143 18.6172 367.8 17.8828C367.472 17.1328 366.972 16.5391 366.3 16.1016C365.628 15.6641 364.768 15.4453 363.722 15.4453C362.831 15.4453 362.065 15.6406 361.425 16.0312C360.784 16.4219 360.261 16.9688 359.854 17.6719C359.464 18.375 359.167 19.2031 358.964 20.1562C358.776 21.0938 358.682 22.125 358.682 23.25V24.1875C358.682 25.2031 358.823 26.1406 359.104 27C359.401 27.8594 359.815 28.6016 360.347 29.2266C360.893 29.8516 361.55 30.3359 362.315 30.6797C363.097 31.0234 363.979 31.1953 364.964 31.1953C366.182 31.1953 367.315 30.9609 368.362 30.4922C369.425 30.0078 370.339 29.2812 371.104 28.3125L374.386 31.875C373.854 32.6406 373.128 33.375 372.206 34.0781C371.3 34.7812 370.206 35.3594 368.925 35.8125C367.643 36.25 366.182 36.4688 364.542 36.4688ZM383.142 16.1719V36H376.392V10.6406H382.743L383.142 16.1719ZM390.783 10.4766L390.665 16.7344C390.337 16.6875 389.939 16.6484 389.47 16.6172C389.017 16.5703 388.603 16.5469 388.228 16.5469C387.275 16.5469 386.447 16.6719 385.743 16.9219C385.056 17.1562 384.478 17.5078 384.009 17.9766C383.556 18.4453 383.212 19.0156 382.978 19.6875C382.759 20.3594 382.634 21.125 382.603 21.9844L381.243 21.5625C381.243 19.9219 381.408 18.4141 381.736 17.0391C382.064 15.6484 382.54 14.4375 383.165 13.4062C383.806 12.375 384.587 11.5781 385.509 11.0156C386.431 10.4531 387.486 10.1719 388.673 10.1719C389.048 10.1719 389.431 10.2031 389.822 10.2656C390.212 10.3125 390.533 10.3828 390.783 10.4766ZM398.156 0V36H391.406V0H398.156ZM397.195 22.4297H395.343C395.359 20.6641 395.593 19.0391 396.047 17.5547C396.5 16.0547 397.148 14.7578 397.992 13.6641C398.836 12.5547 399.843 11.6953 401.015 11.0859C402.203 10.4766 403.515 10.1719 404.953 10.1719C406.203 10.1719 407.336 10.3516 408.351 10.7109C409.383 11.0547 410.265 11.6172 411 12.3984C411.75 13.1641 412.328 14.1719 412.734 15.4219C413.14 16.6719 413.343 18.1875 413.343 19.9688V36H406.547V19.9219C406.547 18.7969 406.383 17.9141 406.054 17.2734C405.742 16.6172 405.281 16.1562 404.672 15.8906C404.078 15.6094 403.343 15.4688 402.468 15.4688C401.5 15.4688 400.672 15.6484 399.984 16.0078C399.312 16.3672 398.773 16.8672 398.367 17.5078C397.961 18.1328 397.664 18.8672 397.476 19.7109C397.289 20.5547 397.195 21.4609 397.195 22.4297ZM414.998 23.5781V23.0859C414.998 21.2266 415.264 19.5156 415.795 17.9531C416.326 16.375 417.1 15.0078 418.115 13.8516C419.131 12.6953 420.381 11.7969 421.865 11.1562C423.35 10.5 425.053 10.1719 426.975 10.1719C428.897 10.1719 430.608 10.5 432.108 11.1562C433.608 11.7969 434.865 12.6953 435.881 13.8516C436.912 15.0078 437.693 16.375 438.225 17.9531C438.756 19.5156 439.022 21.2266 439.022 23.0859V23.5781C439.022 25.4219 438.756 27.1328 438.225 28.7109C437.693 30.2734 436.912 31.6406 435.881 32.8125C434.865 33.9688 433.615 34.8672 432.131 35.5078C430.647 36.1484 428.943 36.4688 427.022 36.4688C425.1 36.4688 423.389 36.1484 421.889 35.5078C420.404 34.8672 419.147 33.9688 418.115 32.8125C417.1 31.6406 416.326 30.2734 415.795 28.7109C415.264 27.1328 414.998 25.4219 414.998 23.5781ZM421.748 23.0859V23.5781C421.748 24.6406 421.842 25.6328 422.029 26.5547C422.217 27.4766 422.514 28.2891 422.92 28.9922C423.342 29.6797 423.889 30.2188 424.561 30.6094C425.233 31 426.053 31.1953 427.022 31.1953C427.959 31.1953 428.764 31 429.436 30.6094C430.108 30.2188 430.647 29.6797 431.053 28.9922C431.459 28.2891 431.756 27.4766 431.943 26.5547C432.147 25.6328 432.248 24.6406 432.248 23.5781V23.0859C432.248 22.0547 432.147 21.0859 431.943 20.1797C431.756 19.2578 431.451 18.4453 431.029 17.7422C430.623 17.0234 430.084 16.4609 429.412 16.0547C428.74 15.6484 427.928 15.4453 426.975 15.4453C426.022 15.4453 425.209 15.6484 424.537 16.0547C423.881 16.4609 423.342 17.0234 422.92 17.7422C422.514 18.4453 422.217 19.2578 422.029 20.1797C421.842 21.0859 421.748 22.0547 421.748 23.0859ZM455.77 29.9297V10.6406H462.52V36H456.168L455.77 29.9297ZM456.52 24.7266L458.512 24.6797C458.512 26.3672 458.317 27.9375 457.926 29.3906C457.536 30.8281 456.95 32.0781 456.168 33.1406C455.387 34.1875 454.403 35.0078 453.215 35.6016C452.028 36.1797 450.629 36.4688 449.02 36.4688C447.786 36.4688 446.645 36.2969 445.598 35.9531C444.567 35.5938 443.676 35.0391 442.926 34.2891C442.192 33.5234 441.614 32.5469 441.192 31.3594C440.786 30.1562 440.582 28.7109 440.582 27.0234V10.6406H447.332V27.0703C447.332 27.8203 447.418 28.4531 447.59 28.9688C447.778 29.4844 448.036 29.9062 448.364 30.2344C448.692 30.5625 449.075 30.7969 449.512 30.9375C449.965 31.0781 450.465 31.1484 451.012 31.1484C452.403 31.1484 453.497 30.8672 454.293 30.3047C455.106 29.7422 455.676 28.9766 456.004 28.0078C456.348 27.0234 456.52 25.9297 456.52 24.7266ZM478.987 28.9922C478.987 28.5078 478.847 28.0703 478.565 27.6797C478.284 27.2891 477.761 26.9297 476.995 26.6016C476.245 26.2578 475.159 25.9453 473.737 25.6641C472.456 25.3828 471.261 25.0312 470.151 24.6094C469.057 24.1719 468.104 23.6484 467.292 23.0391C466.495 22.4297 465.87 21.7109 465.417 20.8828C464.964 20.0391 464.737 19.0781 464.737 18C464.737 16.9375 464.964 15.9375 465.417 15C465.886 14.0625 466.55 13.2344 467.409 12.5156C468.284 11.7813 469.347 11.2109 470.597 10.8047C471.862 10.3828 473.284 10.1719 474.862 10.1719C477.065 10.1719 478.956 10.5234 480.534 11.2266C482.128 11.9297 483.347 12.8984 484.19 14.1328C485.05 15.3516 485.479 16.7422 485.479 18.3047H478.729C478.729 17.6484 478.589 17.0625 478.307 16.5469C478.042 16.0156 477.62 15.6016 477.042 15.3047C476.479 14.9922 475.745 14.8359 474.839 14.8359C474.089 14.8359 473.44 14.9688 472.893 15.2344C472.347 15.4844 471.925 15.8281 471.628 16.2656C471.347 16.6875 471.206 17.1562 471.206 17.6719C471.206 18.0625 471.284 18.4141 471.44 18.7266C471.612 19.0234 471.886 19.2969 472.261 19.5469C472.636 19.7969 473.12 20.0312 473.714 20.25C474.323 20.4531 475.073 20.6406 475.964 20.8125C477.792 21.1875 479.425 21.6797 480.862 22.2891C482.3 22.8828 483.44 23.6953 484.284 24.7266C485.128 25.7422 485.55 27.0781 485.55 28.7344C485.55 29.8594 485.3 30.8906 484.8 31.8281C484.3 32.7656 483.581 33.5859 482.643 34.2891C481.706 34.9766 480.581 35.5156 479.268 35.9062C477.972 36.2812 476.511 36.4688 474.886 36.4688C472.526 36.4688 470.526 36.0469 468.886 35.2031C467.261 34.3594 466.026 33.2891 465.182 31.9922C464.354 30.6797 463.94 29.3359 463.94 27.9609H470.339C470.37 28.8828 470.604 29.625 471.042 30.1875C471.495 30.75 472.065 31.1562 472.753 31.4062C473.456 31.6562 474.214 31.7812 475.026 31.7812C475.901 31.7812 476.628 31.6641 477.206 31.4297C477.784 31.1797 478.222 30.8516 478.518 30.4453C478.831 30.0234 478.987 29.5391 478.987 28.9922ZM499.204 36.4688C497.236 36.4688 495.47 36.1562 493.908 35.5312C492.345 34.8906 491.017 34.0078 489.923 32.8828C488.845 31.7578 488.017 30.4531 487.439 28.9688C486.861 27.4688 486.572 25.875 486.572 24.1875V23.25C486.572 21.3281 486.845 19.5703 487.392 17.9766C487.939 16.3828 488.72 15 489.736 13.8281C490.767 12.6562 492.017 11.7578 493.486 11.1328C494.954 10.4922 496.611 10.1719 498.454 10.1719C500.251 10.1719 501.845 10.4688 503.236 11.0625C504.626 11.6562 505.79 12.5 506.728 13.5938C507.681 14.6875 508.4 16 508.884 17.5312C509.368 19.0469 509.611 20.7344 509.611 22.5938V25.4062H489.454V20.9062H502.978V20.3906C502.978 19.4531 502.806 18.6172 502.462 17.8828C502.134 17.1328 501.634 16.5391 500.962 16.1016C500.29 15.6641 499.431 15.4453 498.384 15.4453C497.493 15.4453 496.728 15.6406 496.087 16.0312C495.447 16.4219 494.923 16.9688 494.517 17.6719C494.126 18.375 493.829 19.2031 493.626 20.1562C493.439 21.0938 493.345 22.125 493.345 23.25V24.1875C493.345 25.2031 493.486 26.1406 493.767 27C494.064 27.8594 494.478 28.6016 495.009 29.2266C495.556 29.8516 496.212 30.3359 496.978 30.6797C497.759 31.0234 498.642 31.1953 499.626 31.1953C500.845 31.1953 501.978 30.9609 503.025 30.4922C504.087 30.0078 505.001 29.2812 505.767 28.3125L509.048 31.875C508.517 32.6406 507.79 33.375 506.868 34.0781C505.962 34.7812 504.868 35.3594 503.587 35.8125C502.306 36.25 500.845 36.4688 499.204 36.4688Z" fill="url(#paint0_linear_1_8)"/>
<path d="M102.276 49.875H108.229L116.995 74.9297L125.761 49.875H131.714L119.386 84H114.604L102.276 49.875ZM99.0653 49.875H104.995L106.073 74.2969V84H99.0653V49.875ZM128.995 49.875H134.948V84H127.917V74.2969L128.995 49.875ZM151.978 78.2812V66.9844C151.978 66.1719 151.845 65.4766 151.579 64.8984C151.314 64.3047 150.9 63.8438 150.337 63.5156C149.79 63.1875 149.079 63.0234 148.204 63.0234C147.454 63.0234 146.806 63.1562 146.259 63.4219C145.712 63.6719 145.29 64.0391 144.993 64.5234C144.697 64.9922 144.548 65.5469 144.548 66.1875H137.798C137.798 65.1094 138.048 64.0859 138.548 63.1172C139.048 62.1484 139.775 61.2969 140.728 60.5625C141.681 59.8125 142.814 59.2266 144.126 58.8047C145.454 58.3828 146.939 58.1719 148.579 58.1719C150.548 58.1719 152.298 58.5 153.829 59.1562C155.361 59.8125 156.564 60.7969 157.439 62.1094C158.329 63.4219 158.775 65.0625 158.775 67.0312V77.8828C158.775 79.2734 158.861 80.4141 159.033 81.3047C159.204 82.1797 159.454 82.9453 159.783 83.6016V84H152.962C152.634 83.3125 152.384 82.4531 152.212 81.4219C152.056 80.375 151.978 79.3281 151.978 78.2812ZM152.868 68.5547L152.915 72.375H149.142C148.251 72.375 147.478 72.4766 146.822 72.6797C146.165 72.8828 145.626 73.1719 145.204 73.5469C144.783 73.9062 144.47 74.3281 144.267 74.8125C144.079 75.2969 143.986 75.8281 143.986 76.4062C143.986 76.9844 144.118 77.5078 144.384 77.9766C144.65 78.4297 145.033 78.7891 145.533 79.0547C146.033 79.3047 146.618 79.4297 147.29 79.4297C148.306 79.4297 149.189 79.2266 149.939 78.8203C150.689 78.4141 151.267 77.9141 151.673 77.3203C152.095 76.7266 152.314 76.1641 152.329 75.6328L154.111 78.4922C153.861 79.1328 153.517 79.7969 153.079 80.4844C152.658 81.1719 152.118 81.8203 151.462 82.4297C150.806 83.0234 150.017 83.5156 149.095 83.9062C148.173 84.2812 147.079 84.4688 145.814 84.4688C144.204 84.4688 142.743 84.1484 141.431 83.5078C140.134 82.8516 139.103 81.9531 138.337 80.8125C137.587 79.6562 137.212 78.3438 137.212 76.875C137.212 75.5469 137.462 74.3672 137.962 73.3359C138.462 72.3047 139.197 71.4375 140.165 70.7344C141.15 70.0156 142.376 69.4766 143.845 69.1172C145.314 68.7422 147.017 68.5547 148.954 68.5547H152.868ZM176.554 78.4688V48H183.351V84H177.234L176.554 78.4688ZM160.523 71.625V71.1328C160.523 69.1953 160.742 67.4375 161.179 65.8594C161.617 64.2656 162.257 62.8984 163.101 61.7578C163.945 60.6172 164.984 59.7344 166.218 59.1094C167.453 58.4844 168.859 58.1719 170.437 58.1719C171.922 58.1719 173.218 58.4844 174.328 59.1094C175.453 59.7344 176.406 60.625 177.187 61.7812C177.984 62.9219 178.625 64.2734 179.109 65.8359C179.593 67.3828 179.945 69.0781 180.164 70.9219V72C179.945 73.7656 179.593 75.4062 179.109 76.9219C178.625 78.4375 177.984 79.7656 177.187 80.9062C176.406 82.0312 175.453 82.9062 174.328 83.5312C173.203 84.1562 171.89 84.4688 170.39 84.4688C168.812 84.4688 167.406 84.1484 166.172 83.5078C164.953 82.8672 163.922 81.9688 163.078 80.8125C162.25 79.6562 161.617 78.2969 161.179 76.7344C160.742 75.1719 160.523 73.4688 160.523 71.625ZM167.273 71.1328V71.625C167.273 72.6719 167.351 73.6484 167.507 74.5547C167.679 75.4609 167.953 76.2656 168.328 76.9688C168.718 77.6562 169.218 78.1953 169.828 78.5859C170.453 78.9609 171.211 79.1484 172.101 79.1484C173.257 79.1484 174.211 78.8906 174.961 78.375C175.711 77.8438 176.281 77.1172 176.672 76.1953C177.078 75.2734 177.312 74.2109 177.375 73.0078V69.9375C177.328 68.9531 177.187 68.0703 176.953 67.2891C176.734 66.4922 176.406 65.8125 175.968 65.25C175.547 64.6875 175.015 64.25 174.375 63.9375C173.75 63.625 173.007 63.4688 172.148 63.4688C171.273 63.4688 170.523 63.6719 169.898 64.0781C169.273 64.4688 168.765 65.0078 168.375 65.6953C168 66.3828 167.718 67.1953 167.531 68.1328C167.359 69.0547 167.273 70.0547 167.273 71.1328ZM197.897 84.4688C195.928 84.4688 194.162 84.1562 192.6 83.5312C191.037 82.8906 189.709 82.0078 188.615 80.8828C187.537 79.7578 186.709 78.4531 186.131 76.9688C185.553 75.4688 185.264 73.875 185.264 72.1875V71.25C185.264 69.3281 185.537 67.5703 186.084 65.9766C186.631 64.3828 187.412 63 188.428 61.8281C189.459 60.6562 190.709 59.7578 192.178 59.1328C193.647 58.4922 195.303 58.1719 197.147 58.1719C198.943 58.1719 200.537 58.4688 201.928 59.0625C203.318 59.6562 204.482 60.5 205.42 61.5938C206.373 62.6875 207.092 64 207.576 65.5312C208.061 67.0469 208.303 68.7344 208.303 70.5938V73.4062H188.147V68.9062H201.67V68.3906C201.67 67.4531 201.498 66.6172 201.154 65.8828C200.826 65.1328 200.326 64.5391 199.654 64.1016C198.982 63.6641 198.123 63.4453 197.076 63.4453C196.186 63.4453 195.42 63.6406 194.779 64.0312C194.139 64.4219 193.615 64.9688 193.209 65.6719C192.818 66.375 192.522 67.2031 192.318 68.1562C192.131 69.0938 192.037 70.125 192.037 71.25V72.1875C192.037 73.2031 192.178 74.1406 192.459 75C192.756 75.8594 193.17 76.6016 193.701 77.2266C194.248 77.8516 194.904 78.3359 195.67 78.6797C196.451 79.0234 197.334 79.1953 198.318 79.1953C199.537 79.1953 200.67 78.9609 201.717 78.4922C202.779 78.0078 203.693 77.2812 204.459 76.3125L207.74 79.875C207.209 80.6406 206.482 81.375 205.561 82.0781C204.654 82.7812 203.561 83.3594 202.279 83.8125C200.998 84.25 199.537 84.4688 197.897 84.4688ZM219.3 48H226.05V78.1875L225.37 84H219.3V48ZM242.104 71.0625V71.5547C242.104 73.4453 241.901 75.1797 241.495 76.7578C241.104 78.3359 240.495 79.7031 239.667 80.8594C238.839 82 237.807 82.8906 236.573 83.5312C235.354 84.1562 233.917 84.4688 232.261 84.4688C230.714 84.4688 229.37 84.1562 228.229 83.5312C227.104 82.9062 226.159 82.0234 225.393 80.8828C224.628 79.7422 224.011 78.4062 223.542 76.875C223.073 75.3438 222.722 73.6719 222.487 71.8594V70.7812C222.722 68.9688 223.073 67.2969 223.542 65.7656C224.011 64.2344 224.628 62.8984 225.393 61.7578C226.159 60.6172 227.104 59.7344 228.229 59.1094C229.354 58.4844 230.682 58.1719 232.214 58.1719C233.886 58.1719 235.339 58.4922 236.573 59.1328C237.823 59.7578 238.854 60.6484 239.667 61.8047C240.495 62.9453 241.104 64.3047 241.495 65.8828C241.901 67.4453 242.104 69.1719 242.104 71.0625ZM235.354 71.5547V71.0625C235.354 70.0312 235.276 69.0625 235.12 68.1562C234.979 67.2344 234.729 66.4297 234.37 65.7422C234.011 65.0391 233.518 64.4844 232.893 64.0781C232.284 63.6719 231.495 63.4688 230.526 63.4688C229.604 63.4688 228.823 63.625 228.182 63.9375C227.542 64.25 227.011 64.6875 226.589 65.25C226.182 65.8125 225.878 66.4844 225.675 67.2656C225.472 68.0312 225.347 68.875 225.3 69.7969V72.8672C225.347 74.1016 225.55 75.1953 225.909 76.1484C226.284 77.0859 226.847 77.8281 227.597 78.375C228.362 78.9062 229.354 79.1719 230.573 79.1719C231.526 79.1719 232.315 78.9844 232.94 78.6094C233.565 78.2344 234.05 77.7031 234.393 77.0156C234.753 76.3281 235.003 75.5234 235.143 74.6016C235.284 73.6641 235.354 72.6484 235.354 71.5547ZM251.142 81.1406L257.868 58.6406H265.111L254.915 87.8203C254.697 88.4609 254.4 89.1484 254.025 89.8828C253.665 90.6172 253.173 91.3125 252.548 91.9688C251.939 92.6406 251.165 93.1875 250.228 93.6094C249.306 94.0312 248.173 94.2422 246.829 94.2422C246.189 94.2422 245.665 94.2031 245.259 94.125C244.853 94.0469 244.368 93.9375 243.806 93.7969V88.8516C243.978 88.8516 244.158 88.8516 244.345 88.8516C244.533 88.8672 244.712 88.875 244.884 88.875C245.775 88.875 246.501 88.7734 247.064 88.5703C247.626 88.3672 248.079 88.0547 248.423 87.6328C248.767 87.2266 249.04 86.6953 249.243 86.0391L251.142 81.1406ZM248.329 58.6406L253.837 77.0156L254.798 84.1641L250.204 84.6562L241.087 58.6406H248.329ZM294.225 49.875H301.233V72.4219C301.233 75.0469 300.67 77.2578 299.545 79.0547C298.436 80.8516 296.897 82.2031 294.928 83.1094C292.975 84.0156 290.725 84.4688 288.178 84.4688C285.631 84.4688 283.365 84.0156 281.381 83.1094C279.412 82.2031 277.865 80.8516 276.74 79.0547C275.631 77.2578 275.076 75.0469 275.076 72.4219V49.875H282.108V72.4219C282.108 73.9531 282.35 75.2031 282.834 76.1719C283.318 77.1406 284.014 77.8516 284.92 78.3047C285.842 78.7578 286.928 78.9844 288.178 78.9844C289.459 78.9844 290.545 78.7578 291.436 78.3047C292.342 77.8516 293.029 77.1406 293.498 76.1719C293.983 75.2031 294.225 73.9531 294.225 72.4219V49.875ZM319.879 49.875V84H312.872V49.875H319.879ZM330.379 49.875V55.3828H302.536V49.875H330.379ZM339.018 49.875V84H331.987V49.875H339.018ZM352.612 64.4531V69.9375H337.097V64.4531H352.612ZM354.253 49.875V55.3828H337.097V49.875H354.253ZM369.22 71.8359H360.525V66.3516H369.22C370.564 66.3516 371.658 66.1328 372.501 65.6953C373.345 65.2422 373.962 64.6172 374.353 63.8203C374.743 63.0234 374.939 62.125 374.939 61.125C374.939 60.1094 374.743 59.1641 374.353 58.2891C373.962 57.4141 373.345 56.7109 372.501 56.1797C371.658 55.6484 370.564 55.3828 369.22 55.3828H362.962V84H355.931V49.875H369.22C371.892 49.875 374.181 50.3594 376.087 51.3281C378.009 52.2812 379.478 53.6016 380.493 55.2891C381.509 56.9766 382.017 58.9062 382.017 61.0781C382.017 63.2812 381.509 65.1875 380.493 66.7969C379.478 68.4062 378.009 69.6484 376.087 70.5234C374.181 71.3984 371.892 71.8359 369.22 71.8359ZM384.468 49.875H397.195C399.804 49.875 402.047 50.2656 403.922 51.0469C405.812 51.8281 407.265 52.9844 408.281 54.5156C409.297 56.0469 409.804 57.9297 409.804 60.1641C409.804 61.9922 409.492 63.5625 408.867 64.875C408.258 66.1719 407.39 67.2578 406.265 68.1328C405.156 68.9922 403.851 69.6797 402.351 70.1953L400.125 71.3672H389.062L389.015 65.8828H397.242C398.476 65.8828 399.5 65.6641 400.312 65.2266C401.125 64.7891 401.734 64.1797 402.14 63.3984C402.562 62.6172 402.773 61.7109 402.773 60.6797C402.773 59.5859 402.57 58.6406 402.164 57.8438C401.758 57.0469 401.14 56.4375 400.312 56.0156C399.484 55.5938 398.445 55.3828 397.195 55.3828H391.5V84H384.468V49.875ZM403.547 84L395.765 68.7891L403.195 68.7422L411.07 83.6719V84H403.547Z" fill="url(#paint1_linear_1_8)"/>
<defs>
<linearGradient id="paint0_linear_1_8" x1="-2.905" y1="44" x2="511.095" y2="44" gradientUnits="userSpaceOnUse">
<stop stop-color="#383127"/>
<stop offset="1" stop-color="#90867D"/>
</linearGradient>
<linearGradient id="paint1_linear_1_8" x1="-2.905" y1="44" x2="511.095" y2="44" gradientUnits="userSpaceOnUse">
<stop stop-color="#383127"/>
<stop offset="1" stop-color="#90867D"/>
</linearGradient>
</defs>
</svg>
