<svg width="20" height="20" viewBox="0 0 20 20" fill="none" xmlns="http://www.w3.org/2000/svg">
<rect width="20" height="20" fill="#F5F5F5"/>
<g id="Desktop">
<rect width="1024" height="3500" transform="translate(-816 -3435)" fill="white"/>
<g id="Main">
<g id="div.mt-72">
<g id="div.w-full">
<g id="div.mt-10">
<g id="div.flex">
<g id="div.cursor-pointer">
<g id="SVG">
<path id="Vector" d="M10 6.5625C9.32013 6.5625 8.65552 6.76411 8.09023 7.14182C7.52493 7.51954 7.08434 8.0564 6.82416 8.68453C6.56399 9.31265 6.49591 10.0038 6.62855 10.6706C6.76119 11.3374 7.08858 11.9499 7.56932 12.4307C8.05006 12.9114 8.66257 13.2388 9.32938 13.3714C9.99619 13.5041 10.6874 13.436 11.3155 13.1758C11.9436 12.9157 12.4805 12.4751 12.8582 11.9098C13.2359 11.3445 13.4375 10.6799 13.4375 10C13.4365 9.08864 13.074 8.21489 12.4295 7.57046C11.7851 6.92603 10.9114 6.56353 10 6.5625ZM10 12.8125C9.44374 12.8125 8.89997 12.6475 8.43746 12.3385C7.97495 12.0295 7.61446 11.5902 7.40159 11.0763C7.18872 10.5624 7.13302 9.99688 7.24154 9.45131C7.35006 8.90574 7.61793 8.4046 8.01126 8.01126C8.4046 7.61793 8.90574 7.35006 9.45131 7.24154C9.99688 7.13302 10.5624 7.18872 11.0763 7.40159C11.5902 7.61446 12.0295 7.97495 12.3385 8.43746C12.6475 8.89997 12.8125 9.44374 12.8125 10C12.8125 10.7459 12.5162 11.4613 11.9887 11.9887C11.4613 12.5162 10.7459 12.8125 10 12.8125ZM13.75 2.1875H6.25C5.17294 2.18874 4.14035 2.61715 3.37875 3.37875C2.61715 4.14035 2.18874 5.17294 2.1875 6.25V13.75C2.18874 14.8271 2.61715 15.8597 3.37875 16.6213C4.14035 17.3828 5.17294 17.8113 6.25 17.8125H13.75C14.8271 17.8113 15.8597 17.3828 16.6213 16.6213C17.3828 15.8597 17.8113 14.8271 17.8125 13.75V6.25C17.8113 5.17294 17.3828 4.14035 16.6213 3.37875C15.8597 2.61715 14.8271 2.18874 13.75 2.1875ZM17.1875 13.75C17.1865 14.6614 16.824 15.5351 16.1795 16.1795C15.5351 16.824 14.6614 17.1865 13.75 17.1875H6.25C5.33864 17.1865 4.46489 16.824 3.82046 16.1795C3.17603 15.5351 2.81353 14.6614 2.8125 13.75V6.25C2.81353 5.33864 3.17603 4.46489 3.82046 3.82046C4.46489 3.17603 5.33864 2.81353 6.25 2.8125H13.75C14.6614 2.81353 15.5351 3.17603 16.1795 3.82046C16.824 4.46489 17.1865 5.33864 17.1875 6.25V13.75ZM14.6875 5.9375C14.6875 6.06111 14.6508 6.18195 14.5822 6.28473C14.5135 6.38751 14.4159 6.46762 14.3017 6.51493C14.1875 6.56223 14.0618 6.57461 13.9406 6.55049C13.8193 6.52638 13.708 6.46685 13.6206 6.37944C13.5331 6.29203 13.4736 6.18067 13.4495 6.05943C13.4254 5.93819 13.4378 5.81253 13.4851 5.69832C13.5324 5.58412 13.6125 5.48651 13.7153 5.41783C13.818 5.34916 13.9389 5.3125 14.0625 5.3125C14.2283 5.3125 14.3872 5.37835 14.5044 5.49556C14.6217 5.61277 14.6875 5.77174 14.6875 5.9375Z" fill="#737373"/>
</g>
</g>
</g>
<path d="M-672 -20H64V-22H-672V-20Z" fill="#3F3F46" mask="url(#path-1-inside-1_0_1)"/>
</g>
</g>
</g>
</g>
</g>
</svg>
