<svg width="20" height="20" viewBox="0 0 20 20" fill="none" xmlns="http://www.w3.org/2000/svg">
<g id="SVG">
<path id="Vector" d="M10 2.1875C8.45484 2.1875 6.94437 2.6457 5.65961 3.50414C4.37485 4.36259 3.3735 5.58274 2.78219 7.01029C2.19088 8.43783 2.03617 10.0087 2.33762 11.5241C2.63907 13.0396 3.38313 14.4317 4.47573 15.5243C5.56833 16.6169 6.96038 17.3609 8.47586 17.6624C9.99134 17.9638 11.5622 17.8091 12.9897 17.2178C14.4173 16.6265 15.6374 15.6252 16.4959 14.3404C17.3543 13.0556 17.8125 11.5452 17.8125 10C17.8102 7.92869 16.9864 5.94288 15.5218 4.47824C14.0571 3.01361 12.0713 2.18977 10 2.1875ZM10.3125 17.1805V11.5625H12.5C12.5829 11.5625 12.6624 11.5296 12.721 11.471C12.7796 11.4124 12.8125 11.3329 12.8125 11.25C12.8125 11.1671 12.7796 11.0876 12.721 11.029C12.6624 10.9704 12.5829 10.9375 12.5 10.9375H10.3125V8.75C10.3125 8.3356 10.4771 7.93817 10.7701 7.64515C11.0632 7.35212 11.4606 7.1875 11.875 7.1875H13.125C13.2079 7.1875 13.2874 7.15458 13.346 7.09597C13.4046 7.03737 13.4375 6.95788 13.4375 6.875C13.4375 6.79212 13.4046 6.71263 13.346 6.65403C13.2874 6.59542 13.2079 6.5625 13.125 6.5625H11.875C11.2948 6.5625 10.7384 6.79297 10.3282 7.2032C9.91797 7.61344 9.6875 8.16984 9.6875 8.75V10.9375H7.5C7.41712 10.9375 7.33764 10.9704 7.27903 11.029C7.22043 11.0876 7.1875 11.1671 7.1875 11.25C7.1875 11.3329 7.22043 11.4124 7.27903 11.471C7.33764 11.5296 7.41712 11.5625 7.5 11.5625H9.6875V17.1805C7.8101 17.0988 6.03936 16.285 4.75463 14.9136C3.46989 13.5422 2.77334 11.7222 2.8142 9.84348C2.85506 7.96475 3.63008 6.17673 4.97323 4.86248C6.31638 3.54822 8.12083 2.81227 10 2.81227C11.8792 2.81227 13.6836 3.54822 15.0268 4.86248C16.3699 6.17673 17.1449 7.96475 17.1858 9.84348C17.2267 11.7222 16.5301 13.5422 15.2454 14.9136C13.9606 16.285 12.1899 17.0988 10.3125 17.1805Z" fill="#737373"/>
</g>
</svg>
