<svg width="20" height="20" viewBox="0 0 20 20" fill="none" xmlns="http://www.w3.org/2000/svg">
<g id="SVG">
<path id="Vector" d="M19.0391 5.50557C19.0154 5.4484 18.9753 5.39955 18.9238 5.36519C18.8724 5.33084 18.8119 5.31254 18.75 5.3126H16.1875C15.8958 4.75192 15.4571 4.28119 14.9183 3.95088C14.3794 3.62057 13.7609 3.44313 13.1289 3.4376C12.6816 3.43118 12.2376 3.51466 11.8232 3.68308C11.4088 3.8515 11.0324 4.10144 10.7164 4.41807C10.3895 4.73816 10.1301 5.12049 9.95336 5.54248C9.77664 5.96448 9.68624 6.4176 9.68749 6.8751V7.74698C6.27734 7.01338 3.43749 4.18448 3.40703 4.15323C3.36518 4.111 3.31215 4.08158 3.25416 4.06844C3.19618 4.05529 3.13565 4.05896 3.07968 4.07901C3.02359 4.09919 2.97444 4.135 2.93804 4.1822C2.90163 4.2294 2.87949 4.28603 2.87421 4.34541C2.54609 7.9876 3.59843 10.4165 4.53906 11.8134C5.05039 12.5886 5.69124 13.2702 6.43359 13.8282C5.20859 15.429 3.03828 16.2603 3.01562 16.2689C2.97107 16.2852 2.93085 16.3115 2.89798 16.3458C2.86512 16.38 2.84049 16.4213 2.82596 16.4665C2.81142 16.5116 2.80737 16.5595 2.81411 16.6065C2.82085 16.6535 2.83819 16.6983 2.86484 16.7376C2.88593 16.7689 3.08281 17.0501 3.61015 17.3126C4.27578 17.6439 5.16406 17.8126 6.24999 17.8126C11.6477 17.8126 16.1508 13.6282 16.5539 8.26338L18.9711 5.84619C19.0148 5.80251 19.0447 5.74683 19.0568 5.68619C19.0689 5.62556 19.0627 5.5627 19.0391 5.50557ZM16.0289 7.90401C15.9752 7.95791 15.9429 8.02959 15.9383 8.10557C15.6133 13.1985 11.3578 17.1876 6.24999 17.1876C4.85546 17.1876 4.0914 16.8837 3.71093 16.6509C4.52109 16.2743 6.16796 15.3743 7.13515 13.9235C7.15867 13.888 7.17468 13.8481 7.1822 13.8062C7.18972 13.7643 7.1886 13.7213 7.1789 13.6798C7.16949 13.6381 7.1515 13.5989 7.12608 13.5646C7.10066 13.5303 7.06836 13.5017 7.03124 13.4806C7.02109 13.4743 5.98515 12.8556 5.03749 11.4376C4.21874 10.2118 3.31171 8.13369 3.45234 5.05088C4.48124 5.95869 7.00546 7.94151 9.94843 8.43369C9.99357 8.44125 10.0398 8.4388 10.0839 8.42651C10.128 8.41423 10.1688 8.39241 10.2036 8.36261C10.2383 8.3328 10.266 8.29573 10.2849 8.25401C10.3037 8.2123 10.3131 8.16695 10.3125 8.12119V6.8751C10.3119 6.50041 10.3861 6.12937 10.5309 5.78377C10.6756 5.43818 10.888 5.12499 11.1555 4.8626C11.4137 4.60452 11.721 4.40077 12.0593 4.26337C12.3976 4.12597 12.7599 4.0577 13.125 4.0626C14.2344 4.07666 15.2727 4.75479 15.7078 5.75088C15.7319 5.80579 15.7714 5.85259 15.8214 5.8857C15.8714 5.9188 15.9299 5.93682 15.9898 5.9376H17.9953L16.0289 7.90401Z" fill="#737373"/>
</g>
</svg>
